PathFileType	4	(X/Y/Z)	c:/Users/goper/Files/vsCode/490R/osim_files/A05/A05_Slow_01.trc
DataRate	CameraRate	NumFrames	NumMarkers	Units                	OrigDataRate	OrigDataStartFrame	OrigNumFrames
250.00	250.00	4	36	mm	250.0	2299	3678
                Frame#	Time	LPSIS			LASIS			LTH1			LTH2			LTH3			LTH4			LLFE			LMFE			LSH1			LSH2			LSH3			LSH4			LLMAL			LMMAL			LCAL			LMTP5			LTOE			LMTP1			RPSIS			RASIS			RTH1			RTH2			RTH3			RTH4			RLFE			RMFE			RSH1			RSH2			RSH3			RSH4			RLMAL			RMMAL			RCAL			RMTP1			RTOE			RMTP5		
		X1	Y1	Z1	X2	Y2	Z2	X3	Y3	Z3	X4	Y4	Z4	X5	Y5	Z5	X6	Y6	Z6	X7	Y7	Z7	X8	Y8	Z8	X9	Y9	Z9	X10	Y10	Z10	X11	Y11	Z11	X12	Y12	Z12	X13	Y13	Z13	X14	Y14	Z14	X15	Y15	Z15	X16	Y16	Z16	X17	Y17	Z17	X18	Y18	Z18	X19	Y19	Z19	X20	Y20	Z20	X21	Y21	Z21	X22	Y22	Z22	X23	Y23	Z23	X24	Y24	Z24	X25	Y25	Z25	X26	Y26	Z26	X27	Y27	Z27	X28	Y28	Z28	X29	Y29	Z29	X30	Y30	Z30	X31	Y31	Z31	X32	Y32	Z32	X33	Y33	Z33	X34	Y34	Z34	X35	Y35	Z35	X36	Y36	Z36

2299	9.19200	-1340.22485	1008.29065	351.14807	-1533.41711	962.30499	455.47107	-1474.35950	667.15533	504.71249	-1497.69995	630.62555	498.89709	-1528.97156	694.25073	511.34326	-1544.42224	654.26666	506.89557	-1605.40710	486.88531	479.57101	-1592.78357	479.52225	380.54285	-1598.79163	384.06427	495.53140	-1610.13110	342.52063	498.10455	-1655.04492	392.31403	475.07315	-1659.09155	348.08051	481.65427	-1684.60852	128.70309	490.75745	-1672.51880	126.09732	401.15549	-1616.21338	53.91337	448.38477	-1826.23914	104.71802	503.21490	-1860.49768	135.26949	436.55997	-1818.99060	114.41922	393.79471	-1346.58533	1013.55237	268.32672	-1528.93347	960.31860	157.97182	-1415.12244	590.87958	118.90421	-1418.25452	550.52325	132.72168	-1470.28748	594.28394	147.81789	-1467.85620	552.54706	149.67471	-1379.53552	516.18768	134.22734	-1389.81543	496.97446	277.11838	-1271.49719	272.57013	141.19510	-1256.77686	228.20996	150.96800	-1327.31653	248.49348	155.72115	-1303.07520	206.20020	159.32956	-1224.24414	121.55164	171.06180	-1270.24463	135.69193	261.49979	-1160.33301	73.37421	247.29387	-1373.09656	54.04183	248.30981	-1405.11804	62.26200	193.13811	-1338.34888	44.84402	130.25104
2300	9.19600	-1344.06226	1007.33502	352.17075	-1537.44043	961.10999	455.86615	-1477.25342	666.05280	504.84238	-1500.50134	629.22845	498.94797	-1532.02539	692.79449	511.51566	-1547.23938	652.68939	507.05893	-1607.54712	485.04639	479.49466	-1594.87708	477.90414	380.42227	-1600.47327	382.21140	495.33627	-1611.63232	340.64380	497.77243	-1656.80872	390.28799	475.01849	-1660.62573	346.08505	481.46442	-1685.23206	126.48169	490.20801	-1673.82629	124.46970	400.36066	-1615.47705	50.68590	448.60358	-1826.79810	101.97086	502.60382	-1861.26965	132.48480	436.06647	-1819.73315	111.88748	393.28079	-1350.13281	1012.83051	269.34723	-1532.07922	959.92834	158.38815	-1416.99121	590.83539	119.04890	-1420.06628	550.51807	132.72559	-1472.33093	594.06366	147.74181	-1469.85291	552.39557	149.31050	-1381.37512	516.14264	134.40884	-1392.29858	496.71933	277.20316	-1272.09094	272.96249	141.42412	-1257.26782	228.72946	151.21866	-1328.07422	248.66577	155.54289	-1303.47900	206.41954	159.23312	-1224.40710	122.05728	171.19919	-1270.79358	135.98949	261.48752	-1160.50879	73.67822	247.25166	-1373.26428	54.15908	248.29150	-1405.20410	62.17265	193.08014	-1338.32971	44.81071	130.22058
2301	9.20000	-1347.89417	1006.42841	353.22345	-1541.54919	960.12463	456.26047	-1479.99097	664.59515	505.54544	-1502.59302	627.76117	499.33279	-1534.85852	691.22803	511.78040	-1549.96826	651.08960	507.18304	-1609.50940	483.13901	479.42712	-1596.80701	476.15552	380.35538	-1602.07751	380.44077	495.09961	-1612.95288	338.67508	497.52548	-1658.50049	388.08539	474.84061	-1661.99817	344.05597	481.24878	-1685.86169	124.76736	489.47458	-1674.63074	122.53918	399.35696	-1615.69385	50.38343	448.01657	-1827.36853	99.36475	502.06961	-1861.87415	129.37306	435.42813	-1820.46606	109.25497	392.72223	-1353.65405	1012.09967	270.42310	-1535.21924	959.54706	158.78419	-1418.99500	590.79895	119.20272	-1422.02808	550.38544	132.74866	-1474.50195	593.84070	147.58473	-1472.00659	552.21906	148.86604	-1383.07007	516.13776	134.56207	-1393.92676	496.34372	277.75064	-1272.71680	273.42233	141.63412	-1257.23425	229.16931	151.38388	-1328.67261	248.75066	155.41351	-1303.83740	206.63286	159.13789	-1224.58655	122.54366	171.30048	-1271.33789	136.26855	261.52194	-1160.71252	74.01581	247.24718	-1373.32788	54.21691	248.22504	-1405.26465	62.06467	193.03664	-1338.28662	44.78647	130.18173
2302	9.20400	-1351.55103	1005.55035	354.12772	-1544.41956	959.00909	456.94037	-1482.58240	663.36951	505.49170	-1505.07434	626.35840	499.27719	-1537.58508	689.65918	511.91257	-1552.46130	649.44702	507.35721	-1611.28015	481.29938	479.39590	-1598.78552	474.54037	380.33704	-1603.36707	378.57205	494.92368	-1614.27185	336.78625	497.21484	-1659.81909	386.30203	474.76126	-1663.16199	341.77695	481.15915	-1686.45032	123.70340	488.30518	-1675.72900	121.12234	398.41074	-1615.86609	50.22024	447.62051	-1828.44397	97.06292	501.42664	-1863.03625	126.17476	434.61038	-1821.43457	106.16628	391.93930	-1356.61841	1011.68781	271.22479	-1538.40674	959.15778	159.23964	-1420.99609	590.77551	119.31338	-1424.01050	550.35986	132.76262	-1476.56323	593.60474	147.43097	-1474.16577	552.15326	148.48157	-1384.85974	516.14960	134.73024	-1396.41248	496.04092	277.79935	-1273.42700	273.89862	141.84909	-1257.76086	229.68109	151.54289	-1329.21606	248.88051	155.21750	-1304.25256	206.93105	158.93324	-1224.73022	123.10196	171.46593	-1271.83899	136.52472	261.54218	-1161.57446	73.61123	246.58258	-1373.34363	54.24592	248.20297	-1405.30347	61.95041	192.95982	-1338.28943	44.73710	130.16222
